<svg width="38" height="22" viewBox="0 0 38 22" fill="none" xmlns="http://www.w3.org/2000/svg">
<path fill-rule="evenodd" clip-rule="evenodd" d="M26.5117 0.730857C24.3652 -0.0656162 24.3048 -0.0436469 23.2839 1.92182C22.9629 2.53988 22.5233 3.38609 21.8714 4.4689C17.952 10.9812 9.63448 13.2262 9.24185 13.3284C6.73819 13.3305 5.0627 13.8303 4.26234 14.8148C3.77024 15.4199 3.77983 16.0164 3.80068 16.218C3.38816 16.5992 3.18633 16.9875 3.20071 17.3725C3.21917 17.8774 3.60557 18.1782 3.61779 18.1871C3.71247 18.2668 6.09724 20.1425 19.7723 20.563C21.4979 20.6159 23.0732 20.6391 24.5088 20.6391C34.4359 20.6391 37.6857 19.5345 37.7219 19.522L37.8006 19.4269C38.1982 16.8798 37.9271 15.9653 37.6299 15.6466C37.5685 15.5809 37.5079 15.542 37.4554 15.5191C37.6189 14.8103 37.5848 13.6992 37.4554 12.2391L23.754 11.7673C23.754 11.7673 28.2579 6.01742 31.3428 2.26659C29.0259 1.66229 27.5362 1.11087 26.5117 0.730857Z" fill="#FFCC66"/>
<path d="M14.216 10.3977L17.636 13.0353M1.519 16.5583C1.519 16.5583 1.08568 13.8087 6.9758 13.8087C6.9758 13.8087 15.4515 11.5567 19.519 4.79825C23.5865 -1.95919 19.3657 0.996772 33.1563 3.67189C33.1563 3.67189 33.9652 3.71282 33.919 4.55825C33.8716 5.40272 35.6347 13.9026 35.027 15.9664C35.027 15.9664 36.0082 15.8735 35.4003 19.7673C35.4003 19.7673 31.2866 21.2237 17.495 20.8015C3.70428 20.3773 1.4137 18.4537 1.4137 18.4537C1.4137 18.4537 0.303365 17.6383 1.519 16.5583ZM20.935 2.52504C20.935 2.52504 22.9969 3.27936 25.1593 1.77048L20.935 2.52504ZM1.999 16.492C1.999 16.492 22.9318 19.7375 35.119 15.8383L1.999 16.492ZM34.2438 4.32692C34.2438 4.32692 36.993 4.31443 34.5995 8.45563L34.2438 4.32692ZM19.6554 4.86692L24.3471 8.2238L19.6554 4.86692ZM18.1554 6.9348L22.574 10.0848L18.1554 6.9348ZM16.3444 8.75614L20.6012 12.0393L16.3444 8.75614Z" stroke="#231F20" stroke-linecap="round" stroke-linejoin="round"/>
</svg>
