<svg width="38" height="24" viewBox="0 0 38 24" fill="none" xmlns="http://www.w3.org/2000/svg">
<path d="M37.4782 0.767822H28.9102V19.1038H37.4782V0.767822Z" fill="#FFE258"/>
<path d="M27.782 0.767822H5.58203V19.1038H27.782V0.767822Z" fill="#FFCC66"/>
<path d="M17.101 9.59955C17.341 9.59955 17.533 9.79155 17.533 10.0555V10.2955C18.133 10.3675 18.637 10.5595 19.117 10.8715C19.285 10.9675 19.429 11.1355 19.429 11.3755C19.429 11.7115 19.165 11.9515 18.853 11.9515C18.757 11.9515 18.637 11.9275 18.541 11.8555C18.181 11.6395 17.845 11.4715 17.485 11.3995V13.4155C19.021 13.8235 19.693 14.4475 19.693 15.5755C19.693 16.7275 18.829 17.4955 17.533 17.6395V18.2635C17.533 18.5275 17.341 18.7195 17.101 18.7195C16.861 18.7195 16.645 18.5275 16.645 18.2635V17.6155C15.877 17.5195 15.181 17.2555 14.557 16.7995C14.389 16.6795 14.293 16.5115 14.293 16.2955C14.293 15.9595 14.533 15.7195 14.845 15.7195C14.965 15.7195 15.085 15.7675 15.181 15.8395C15.661 16.1995 16.117 16.4395 16.693 16.5355V14.4715C15.205 14.0635 14.509 13.4875 14.509 12.3115C14.509 11.1835 15.373 10.4155 16.645 10.2955V10.0795C16.669 9.79155 16.861 9.59955 17.101 9.59955ZM16.693 13.1755V11.3035C16.045 11.3755 15.709 11.7355 15.709 12.1915C15.733 12.6475 15.925 12.9115 16.693 13.1755ZM17.509 14.6395V16.5595C18.157 16.4875 18.517 16.1515 18.517 15.6475C18.517 15.1915 18.277 14.9035 17.509 14.6395Z" fill="black"/>
<path d="M33.2079 4.87329H1.33594V23.2093H33.2079V4.87329Z" stroke="black" stroke-miterlimit="10" stroke-linecap="round" stroke-linejoin="round"/>
<path d="M33.2328 8.64129C31.1448 8.64129 29.4648 6.96129 29.4648 4.87329" stroke="black" stroke-miterlimit="10" stroke-linecap="round" stroke-linejoin="round"/>
<path d="M29.4648 23.2091C29.4648 21.1211 31.1448 19.4411 33.2328 19.4411" stroke="black" stroke-miterlimit="10" stroke-linecap="round" stroke-linejoin="round"/>
<path d="M1.33594 8.64129C3.42394 8.64129 5.10394 6.96129 5.10394 4.87329" stroke="black" stroke-miterlimit="10" stroke-linecap="round" stroke-linejoin="round"/>
<path d="M5.10394 23.2091C5.10394 21.1211 3.42394 19.4411 1.33594 19.4411" stroke="black" stroke-miterlimit="10" stroke-linecap="round" stroke-linejoin="round"/>
</svg>
