<svg width="36" height="28" viewBox="0 0 36 28" fill="none" xmlns="http://www.w3.org/2000/svg">
<path d="M35.6164 27.4796V15.5516H25.3204V8.13562L15.8884 12.4076V8.13562L5.54437 12.8396V27.4796H35.6164ZM10.6564 22.2716H9.33637V20.9516H10.6564V22.2716ZM10.6564 19.6796H9.33637V18.3596H10.6564V19.6796ZM13.2484 22.2716H11.9284V20.9516H13.2484V22.2716ZM13.2484 19.6796H11.9284V18.3596H13.2484V19.6796ZM15.8164 22.2716H14.4964V20.9516H15.8164V22.2716ZM15.8164 19.6796H14.4964V18.3596H15.8164V19.6796ZM29.5444 18.3596H30.8644V19.6796H29.5444V18.3596ZM29.5444 20.9516H30.8644V22.2716H29.5444V20.9516ZM28.2964 22.2716H26.9764V20.9516H28.2964V22.2716ZM28.2964 19.6796H26.9764V18.3596H28.2964V19.6796ZM31.0084 26.8316H29.4484V24.1916H31.0084V26.8316ZM33.4564 22.2716H32.1364V20.9516H33.4564V22.2716ZM33.4564 19.6796H32.1364V18.3596H33.4564V19.6796Z" fill="#FFE258"/>
<path d="M31.032 27.12V15.192H29.64V13.896H28.872V1.07999H27.432V13.92H26.664V15.216H25.728V13.92H24.96V5.78399H23.52V13.896H22.752V15.192H20.76V7.77599L11.328 12.048V7.77599L0.960007 12.48V27.12H31.032Z" stroke="black" stroke-miterlimit="10"/>
</svg>
