<svg width="37" height="36" viewBox="0 0 37 36" fill="none" xmlns="http://www.w3.org/2000/svg">
<path fill-rule="evenodd" clip-rule="evenodd" d="M19.68 4.55998V16.8H28.56V13.68L32.5318 15.9641L36.3593 10.2746L28.56 4.55998H24.48H24.24L22.8 1.91998L19.68 4.55998Z" fill="#FFCC66"/>
<path fill-rule="evenodd" clip-rule="evenodd" d="M19.68 20.4H28.56V18H19.68V20.4Z" fill="#FFCC66"/>
<path fill-rule="evenodd" clip-rule="evenodd" d="M19.68 24H28.56V21.6H19.68V24Z" fill="#FFA458"/>
<path fill-rule="evenodd" clip-rule="evenodd" d="M19.68 27.6H28.56V25.2H19.68V27.6Z" fill="#FFCC66"/>
<path fill-rule="evenodd" clip-rule="evenodd" d="M8.64 34.56H28.56V28.8H8.64V34.56Z" fill="#FFE258"/>
<path fill-rule="evenodd" clip-rule="evenodd" d="M26.5685 3.84003H22.7348H22.3204L21.4399 7.56318L17.4516 4.25371H17.348L13.3598 7.56318L12.4792 3.84003H12.0649H8.23138C8.09733 3.84003 7.9668 3.88326 7.85948 3.9633L0.729702 9.27832C0.464093 9.47606 0.400695 9.84713 0.58571 10.1218L3.76141 14.8345C3.88095 15.012 4.07715 15.1088 4.27771 15.1088C4.38523 15.1088 4.49401 15.0811 4.59283 15.0227L8.12841 12.9411V34.6595C8.12841 35.0022 8.40665 35.28 8.74996 35.28H16.8301H17.9696H26.0497C26.393 35.28 26.6713 35.0022 26.6713 34.6595V12.9411L30.2068 15.0227C30.3057 15.0809 30.4144 15.1088 30.5222 15.1088C30.7227 15.1088 30.9187 15.012 31.0383 14.8345L34.214 10.1218C34.399 9.84713 34.3356 9.47606 34.0702 9.27832L26.9404 3.9633C26.8329 3.88326 26.7023 3.84003 26.5685 3.84003ZM26.4677 4.56003L33.3599 9.73465L30.4136 14.1383L27.0581 12.1485C26.9287 12.0717 26.7838 12.0333 26.6386 12.0333C26.4974 12.0333 26.356 12.0696 26.229 12.1427C25.9718 12.2905 25.8128 12.5656 25.8128 12.8637V34.32H8.98695V12.8637C8.98695 12.5656 8.82819 12.2905 8.57074 12.1427C8.44377 12.0696 8.30256 12.0333 8.16114 12.0333C8.01601 12.0333 7.87108 12.0717 7.74163 12.1485L4.38616 14.1383L1.43988 9.73465L8.33229 4.56003H11.8432L12.5703 7.65708C12.636 7.93691 12.841 8.16256 13.1123 8.25369C13.1978 8.28255 13.2861 8.29667 13.3741 8.29667C13.5642 8.29667 13.7515 8.23065 13.902 8.10485L17.3999 5.18155L20.8978 8.10485C21.0483 8.23065 21.2356 8.29667 21.4257 8.29667C21.5136 8.29667 21.602 8.28255 21.6877 8.25369C21.9588 8.16256 22.1636 7.93691 22.2294 7.65708L22.9567 4.56003H26.4677Z" fill="#231F20"/>
<path d="M22.7029 4.27446L20.8408 1.17102H14.0133L12.1511 4.27446" stroke="#231F20" stroke-linejoin="round"/>
<path d="M20.6346 1.30951L17.4966 4.68875M14.1863 1.30951L17.3243 4.68875L14.1863 1.30951Z" stroke="#231F20" stroke-linecap="round" stroke-linejoin="round"/>
<path fill-rule="evenodd" clip-rule="evenodd" d="M18.48 19.2C18.48 19.8626 17.9428 20.4 17.28 20.4C16.6172 20.4 16.08 19.8626 16.08 19.2C16.08 18.5372 16.6172 18 17.28 18C17.9428 18 18.48 18.5372 18.48 19.2ZM18.48 22.8C18.48 23.4626 17.9428 24 17.28 24C16.6172 24 16.08 23.4626 16.08 22.8C16.08 22.1374 16.6172 21.6 17.28 21.6C17.9428 21.6 18.48 22.1374 18.48 22.8ZM18.48 26.4C18.48 27.0626 17.9428 27.6 17.28 27.6C16.6172 27.6 16.08 27.0626 16.08 26.4C16.08 25.7374 16.6172 25.2 17.28 25.2C17.9428 25.2 18.48 25.7374 18.48 26.4Z" fill="#FFA458"/>
<path d="M18 5.03998H17.04V10.8H18V5.03998Z" fill="#231F20"/>
</svg>
